Metropolis-Bold Italic.ufo
<glyph name="exclam" format="1">
  <advance width="328"/>
  <unicode hex="0021"/>
  <outline>
    <contour>
      <point x="228" y="274" type="line"/>
      <point x="356" y="687" type="line"/>
      <point x="141" y="687" type="line"/>
      <point x="98" y="274" type="line"/>
    </contour>
    <component base="period" xOffset="7"/>
  </outline>
</glyph>
<glyph name="numbersign" format="1">
  <advance width="679"/>
  <unicode hex="0023"/>
  <outline>
    <contour>
      <point x="154" y="0" type="line"/>
      <point x="470" y="687" type="line"/>
      <point x="332" y="687" type="line"/>
      <point x="16" y="0" type="line"/>
    </contour>
    <contour>
      <point x="381" y="0" type="line"/>
      <point x="697" y="687" type="line"/>
      <point x="559" y="687" type="line"/>
      <point x="243" y="0" type="line"/>
    </contour>
    <contour>
      <point x="532" y="147" type="line"/>
      <point x="593" y="281" type="line"/>
      <point x="64" y="281" type="line"/>
      <point x="3" y="147" type="line"/>
    </contour>
    <contour>
      <point x="650" y="404" type="line"/>
      <point x="711" y="538" type="line"/>
      <point x="178" y="538" type="line"/>
      <point x="117" y="404" type="line"/>
    </contour>
  </outline>
</glyph>
<glyph name="ampersand" format="1">
  <advance width="682"/>
  <unicode hex="0026"/>
  <outline>
    <contour>
      <point x="387" y="-12"/>
      <point x="524" y="101"/>
      <point x="672" y="300" type="curve"/>
      <point x="548" y="379" type="line"/>
      <point x="471" y="256"/>
      <point x="342" y="129"/>
      <point x="250" y="129" type="curve" smooth="yes"/>
      <point x="219" y="129"/>
      <point x="196" y="145"/>
      <point x="196" y="175" type="curve" smooth="yes"/>
      <point x="196" y="240"/>
      <point x="261" y="277"/>
      <point x="338" y="304" type="curve" smooth="yes"/>
      <point x="497" y="373"/>
      <point x="598" y="416"/>
      <point x="598" y="537" type="curve" smooth="yes"/>
      <point x="598" y="631"/>
      <point x="524" y="696"/>
      <point x="408" y="696" type="curve" smooth="yes"/>
      <point x="286" y="696"/>
      <point x="171" y="604"/>
      <point x="171" y="476" type="curve" smooth="yes"/>
      <point x="171" y="432"/>
      <point x="192" y="399"/>
      <point x="229" y="334" type="curve" smooth="yes"/>
      <point x="268" y="265"/>
      <point x="347" y="150"/>
      <point x="463" y="-17" type="curve"/>
      <point x="620" y="40" type="line"/>
      <point x="484" y="224"/>
      <point x="407" y="325"/>
      <point x="366" y="391" type="curve" smooth="yes"/>
      <point x="339" y="435"/>
      <point x="328" y="457"/>
      <point x="328" y="483" type="curve" smooth="yes"/>
      <point x="328" y="525"/>
      <point x="371" y="567"/>
      <point x="410" y="567" type="curve" smooth="yes"/>
      <point x="430" y="567"/>
      <point x="442" y="556"/>
      <point x="442" y="538" type="curve" smooth="yes"/>
      <point x="442" y="467"/>
      <point x="364" y="447"/>
      <point x="262" y="416" type="curve" smooth="yes"/>
      <point x="107" y="361"/>
      <point x="5" y="305"/>
      <point x="5" y="158" type="curve" smooth="yes"/>
      <point x="5" y="51"/>
      <point x="90" y="-12"/>
      <point x="218" y="-12" type="curve" smooth="yes"/>
    </contour>
  </outline>
</glyph>
<glyph name="parenleft" format="1">
  <advance width="405"/>
  <unicode hex="0028"/>
  <outline>
    <contour>
      <point x="303" y="-72" type="line"/>
      <point x="244" y="2"/>
      <point x="219" y="72"/>
      <point x="219" y="152" type="curve" smooth="yes"/>
      <point x="219" y="322"/>
      <point x="304" y="470"/>
      <point x="448" y="593" type="curve"/>
      <point x="362" y="704" type="line"/>
      <point x="166" y="589"/>
      <point x="36" y="385"/>
      <point x="36" y="168" type="curve" smooth="yes"/>
      <point x="36" y="28"/>
      <point x="94" y="-90"/>
      <point x="194" y="-166" type="curve"/>
    </contour>
  </outline>
</glyph>
<glyph name="parenright" format="1">
  <advance width="405"/>
  <unicode hex="0029"/>
  <outline>
    <contour>
      <point x="241" y="-59"/>
      <point x="372" y="144"/>
      <point x="372" y="364" type="curve" smooth="yes"/>
      <point x="372" y="503"/>
      <point x="314" y="620"/>
      <point x="214" y="696" type="curve"/>
      <point x="105" y="603" type="line"/>
      <point x="163" y="529"/>
      <point x="189" y="459"/>
      <point x="189" y="379" type="curve" smooth="yes"/>
      <point x="189" y="205"/>
      <point x="104" y="60"/>
      <point x="-40" y="-62" type="curve"/>
      <point x="46" y="-174" type="line"/>
    </contour>
  </outline>
</glyph>
<glyph name="comma" format="1">
  <advance width="311"/>
  <unicode hex="002C"/>
  <outline>
    <contour>
      <point x="157" y="-95"/>
      <point x="234" y="-6"/>
      <point x="234" y="98" type="curve" smooth="yes"/>
      <point x="234" y="170"/>
      <point x="196" y="219"/>
      <point x="134" y="219" type="curve" smooth="yes"/>
      <point x="71" y="219"/>
      <point x="9" y="159"/>
      <point x="9" y="90" type="curve" smooth="yes"/>
      <point x="9" y="33"/>
      <point x="49" y="-5"/>
      <point x="100" y="-5" type="curve"/>
      <point x="78" y="-38"/>
      <point x="44" y="-75"/>
      <point x="4" y="-102" type="curve"/>
      <point x="67" y="-160" type="line"/>
    </contour>
  </outline>
</glyph>
<glyph name="hyphen" format="1">
  <advance width="361"/>
  <unicode hex="002D"/>
  <outline>
    <contour>
      <point x="310" y="199" type="line"/>
      <point x="343" y="357" type="line"/>
      <point x="59" y="357" type="line"/>
      <point x="26" y="199" type="line"/>
    </contour>
  </outline>
</glyph>
<glyph name="slash" format="1">
  <advance width="497"/>
  <unicode hex="002F"/>
  <outline>
    <contour>
      <point x="106" y="-74" type="line"/>
      <point x="616" y="743" type="line"/>
      <point x="412" y="743" type="line"/>
      <point x="-98" y="-74" type="line"/>
    </contour>
  </outline>
</glyph>
<glyph name="zero" format="1">
  <advance width="719"/>
  <unicode hex="0030"/>
  <outline>
    <contour>
      <point x="540" y="-12"/>
      <point x="708" y="194"/>
      <point x="708" y="422" type="curve" smooth="yes"/>
      <point x="708" y="588"/>
      <point x="605" y="699"/>
      <point x="438" y="699" type="curve" smooth="yes"/>
      <point x="214" y="699"/>
      <point x="46" y="494"/>
      <point x="46" y="265" type="curve" smooth="yes"/>
      <point x="46" y="99"/>
      <point x="149" y="-12"/>
      <point x="315" y="-12" type="curve" smooth="yes"/>
    </contour>
    <contour>
      <point x="274" y="164"/>
      <point x="244" y="206"/>
      <point x="244" y="273" type="curve" smooth="yes"/>
      <point x="244" y="388"/>
      <point x="323" y="523"/>
      <point x="427" y="523" type="curve" smooth="yes"/>
      <point x="480" y="523"/>
      <point x="510" y="481"/>
      <point x="510" y="414" type="curve" smooth="yes"/>
      <point x="510" y="300"/>
      <point x="430" y="164"/>
      <point x="327" y="164" type="curve" smooth="yes"/>
    </contour>
  </outline>
</glyph>
<glyph name="five" format="1">
  <advance width="629"/>
  <unicode hex="0035"/>
  <outline>
    <contour>
      <point x="446" y="-13"/>
      <point x="593" y="97"/>
      <point x="593" y="274" type="curve" smooth="yes"/>
      <point x="593" y="389"/>
      <point x="507" y="454"/>
      <point x="396" y="454" type="curve" smooth="yes"/>
      <point x="351" y="454"/>
      <point x="308" y="443"/>
      <point x="271" y="420" type="curve"/>
      <point x="299" y="514" type="line"/>
      <point x="610" y="514" type="line"/>
      <point x="646" y="687" type="line"/>
      <point x="157" y="687" type="line"/>
      <point x="68" y="304" type="line"/>
      <point x="189" y="251" type="line"/>
      <point x="227" y="277"/>
      <point x="272" y="296"/>
      <point x="326" y="296" type="curve" smooth="yes"/>
      <point x="374" y="296"/>
      <point x="400" y="281"/>
      <point x="400" y="253" type="curve" smooth="yes"/>
      <point x="400" y="199"/>
      <point x="337" y="154"/>
      <point x="268" y="154" type="curve" smooth="yes"/>
      <point x="215" y="154"/>
      <point x="161" y="178"/>
      <point x="119" y="221" type="curve"/>
      <point x="-11" y="95" type="line"/>
      <point x="48" y="31"/>
      <point x="131" y="-13"/>
      <point x="258" y="-13" type="curve" smooth="yes"/>
    </contour>
  </outline>
</glyph>
<glyph name="six" format="1">
  <advance width="659"/>
  <unicode hex="0036"/>
  <outline>
    <contour>
      <point x="475" y="-12"/>
      <point x="621" y="107"/>
      <point x="621" y="271" type="curve" smooth="yes"/>
      <point x="621" y="384"/>
      <point x="536" y="454"/>
      <point x="418" y="454" type="curve" smooth="yes"/>
      <point x="348" y="454"/>
      <point x="265" y="426"/>
      <point x="219" y="377" type="curve"/>
      <point x="202" y="173" type="line"/>
      <point x="219" y="242"/>
      <point x="282" y="299"/>
      <point x="349" y="299" type="curve" smooth="yes"/>
      <point x="388" y="299"/>
      <point x="420" y="284"/>
      <point x="420" y="252" type="curve" smooth="yes"/>
      <point x="420" y="199"/>
      <point x="362" y="152"/>
      <point x="299" y="152" type="curve" smooth="yes"/>
      <point x="249" y="152"/>
      <point x="230" y="169"/>
      <point x="230" y="214" type="curve" smooth="yes"/>
      <point x="230" y="362"/>
      <point x="306" y="530"/>
      <point x="445" y="530" type="curve" smooth="yes"/>
      <point x="491" y="530"/>
      <point x="525" y="518"/>
      <point x="560" y="488" type="curve"/>
      <point x="669" y="626" type="line"/>
      <point x="615" y="669"/>
      <point x="547" y="699"/>
      <point x="453" y="699" type="curve" smooth="yes"/>
      <point x="207" y="699"/>
      <point x="39" y="491"/>
      <point x="39" y="240" type="curve" smooth="yes"/>
      <point x="39" y="88"/>
      <point x="124" y="-12"/>
      <point x="302" y="-12" type="curve" smooth="yes"/>
    </contour>
  </outline>
</glyph>
<glyph name="eight" format="1">
  <advance width="636"/>
  <unicode hex="0038"/>
  <outline>
    <contour>
      <point x="438" y="-12"/>
      <point x="597" y="60"/>
      <point x="597" y="210" type="curve" smooth="yes"/>
      <point x="597" y="273"/>
      <point x="562" y="322"/>
      <point x="506" y="349" type="curve"/>
      <point x="591" y="386"/>
      <point x="646" y="442"/>
      <point x="646" y="531" type="curve" smooth="yes"/>
      <point x="646" y="637"/>
      <point x="536" y="699"/>
      <point x="397" y="699" type="curve" smooth="yes"/>
      <point x="249" y="699"/>
      <point x="95" y="630"/>
      <point x="95" y="486" type="curve" smooth="yes"/>
      <point x="95" y="423"/>
      <point x="129" y="383"/>
      <point x="171" y="361" type="curve"/>
      <point x="79" y="325"/>
      <point x="10" y="261"/>
      <point x="10" y="164" type="curve" smooth="yes"/>
      <point x="10" y="51"/>
      <point x="125" y="-12"/>
      <point x="274" y="-12" type="curve" smooth="yes"/>
    </contour>
    <contour>
      <point x="236" y="148"/>
      <point x="208" y="161"/>
      <point x="208" y="185" type="curve" smooth="yes"/>
      <point x="208" y="232"/>
      <point x="274" y="269"/>
      <point x="333" y="272" type="curve"/>
      <point x="374" y="270"/>
      <point x="409" y="256"/>
      <point x="409" y="232" type="curve" smooth="yes"/>
      <point x="409" y="185"/>
      <point x="345" y="148"/>
      <point x="283" y="148" type="curve" smooth="yes"/>
    </contour>
    <contour>
      <point x="304" y="422"/>
      <point x="278" y="436"/>
      <point x="278" y="459" type="curve" smooth="yes"/>
      <point x="278" y="502"/>
      <point x="332" y="540"/>
      <point x="389" y="540" type="curve" smooth="yes"/>
      <point x="430" y="540"/>
      <point x="453" y="526"/>
      <point x="453" y="505" type="curve" smooth="yes"/>
      <point x="453" y="463"/>
      <point x="394" y="423"/>
      <point x="339" y="420" type="curve"/>
    </contour>
  </outline>
</glyph>
<glyph name="question" format="1">
  <advance width="507"/>
  <unicode hex="003F"/>
  <outline>
    <contour>
      <point x="335" y="264" type="line"/>
      <point x="342" y="298" type="line"/>
      <point x="450" y="323"/>
      <point x="539" y="412"/>
      <point x="539" y="525" type="curve" smooth="yes"/>
      <point x="539" y="628"/>
      <point x="459" y="699"/>
      <point x="332" y="699" type="curve" smooth="yes"/>
      <point x="242" y="699"/>
      <point x="152" y="663"/>
      <point x="79" y="601" type="curve"/>
      <point x="171" y="482" type="line"/>
      <point x="199" y="505"/>
      <point x="245" y="526"/>
      <point x="283" y="526" type="curve" smooth="yes"/>
      <point x="318" y="526"/>
      <point x="341" y="515"/>
      <point x="341" y="488" type="curve" smooth="yes"/>
      <point x="341" y="448"/>
      <point x="258" y="414"/>
      <point x="189" y="414" type="curve"/>
      <point x="159" y="264" type="line"/>
    </contour>
    <component base="period" xOffset="105"/>
  </outline>
</glyph>
<glyph name="E" format="1">
  <advance width="651"/>
  <unicode hex="0045"/>
  <outline>
    <contour>
      <point x="559" y="0" type="line"/>
      <point x="595" y="173" type="line"/>
      <point x="144" y="173" type="line"/>
      <point x="214" y="54" type="line"/>
      <point x="268" y="333" type="line"/>
      <point x="159" y="264" type="line"/>
      <point x="582" y="264" type="line"/>
      <point x="618" y="437" type="line"/>
      <point x="198" y="437" type="line"/>
      <point x="279" y="367" type="line"/>
      <point x="330" y="633" type="line"/>
      <point x="210" y="514" type="line"/>
      <point x="666" y="514" type="line"/>
      <point x="702" y="687" type="line"/>
      <point x="149" y="687" type="line"/>
      <point x="6" y="0" type="line"/>
    </contour>
    <contour>
      <point x="426" y="687" type="move" name="top"/>
    </contour>
    <contour>
      <point x="334" y="0" type="move" name="bottom"/>
    </contour>
  </outline>
</glyph>
<glyph name="H" format="1">
  <advance width="759"/>
  <unicode hex="0048"/>
  <outline>
    <contour>
      <point x="200" y="0" type="line"/>
      <point x="264" y="315" type="line"/>
      <point x="206" y="264" type="line"/>
      <point x="550" y="264" type="line"/>
      <point x="515" y="315" type="line"/>
      <point x="452" y="0" type="line"/>
      <point x="645" y="0" type="line"/>
      <point x="788" y="687" type="line"/>
      <point x="594" y="687" type="line"/>
      <point x="534" y="385" type="line"/>
      <point x="593" y="437" type="line"/>
      <point x="247" y="437" type="line"/>
      <point x="283" y="385" type="line"/>
      <point x="343" y="687" type="line"/>
      <point x="149" y="687" type="line"/>
      <point x="6" y="0" type="line"/>
    </contour>
  </outline>
</glyph>
<glyph name="J" format="1">
  <advance width="546"/>
  <unicode hex="004A"/>
  <outline>
    <contour>
      <point x="340" y="-12"/>
      <point x="456" y="78"/>
      <point x="484" y="216" type="curve" smooth="yes"/>
      <point x="582" y="687" type="line"/>
      <point x="388" y="687" type="line"/>
      <point x="298" y="252" type="line" smooth="yes"/>
      <point x="288" y="205"/>
      <point x="239" y="164"/>
      <point x="186" y="164" type="curve" smooth="yes"/>
      <point x="157" y="164"/>
      <point x="126" y="182"/>
      <point x="115" y="217" type="curve"/>
      <point x="-28" y="108" type="line"/>
      <point x="9" y="41"/>
      <point x="101" y="-12"/>
      <point x="200" y="-12" type="curve" smooth="yes"/>
    </contour>
  </outline>
</glyph>
<glyph name="M" format="1">
  <advance width="876"/>
  <unicode hex="004D"/>
  <outline>
    <contour>
      <point x="200" y="0" type="line"/>
      <point x="279" y="368" type="line"/>
      <point x="397" y="40" type="line"/>
      <point x="647" y="368" type="line"/>
      <point x="568" y="0" type="line"/>
      <point x="762" y="0" type="line"/>
      <point x="905" y="687" type="line"/>
      <point x="709" y="687" type="line"/>
      <point x="455" y="359" type="line"/>
      <point x="341" y="687" type="line"/>
      <point x="149" y="687" type="line"/>
      <point x="6" y="0" type="line"/>
    </contour>
  </outline>
</glyph>
<glyph name="N" format="1">
  <advance width="776"/>
  <unicode hex="004E"/>
  <outline>
    <contour>
      <point x="200" y="0" type="line"/>
      <point x="279" y="368" type="line"/>
      <point x="471" y="0" type="line"/>
      <point x="662" y="0" type="line"/>
      <point x="805" y="687" type="line"/>
      <point x="611" y="687" type="line"/>
      <point x="532" y="319" type="line"/>
      <point x="341" y="687" type="line"/>
      <point x="149" y="687" type="line"/>
      <point x="6" y="0" type="line"/>
    </contour>
    <contour>
      <point x="476" y="687" type="move" name="top"/>
    </contour>
    <contour>
      <point x="335" y="0" type="move" name="bottom"/>
    </contour>
  </outline>
</glyph>
<glyph name="P" format="1">
  <advance width="670"/>
  <unicode hex="0050"/>
  <outline>
    <contour>
      <point x="200" y="0" type="line"/>
      <point x="244" y="207" type="line"/>
      <point x="385" y="207" type="line" smooth="yes"/>
      <point x="557" y="207"/>
      <point x="694" y="324"/>
      <point x="694" y="487" type="curve" smooth="yes"/>
      <point x="694" y="606"/>
      <point x="606" y="687"/>
      <point x="472" y="687" type="curve" smooth="yes"/>
      <point x="149" y="687" type="line"/>
      <point x="6" y="0" type="line"/>
    </contour>
    <contour>
      <point x="307" y="511" type="line"/>
      <point x="432" y="511" type="line" smooth="yes"/>
      <point x="473" y="511"/>
      <point x="496" y="496"/>
      <point x="496" y="471" type="curve" smooth="yes"/>
      <point x="496" y="429"/>
      <point x="444" y="383"/>
      <point x="393" y="383" type="curve" smooth="yes"/>
      <point x="280" y="383" type="line"/>
    </contour>
  </outline>
</glyph>
<glyph name="X" format="1">
  <advance width="738"/>
  <unicode hex="0058"/>
  <outline>
    <contour>
      <point x="106" y="687" type="line"/>
      <point x="324" y="687" type="line"/>
      <point x="667" y="0" type="line"/>
      <point x="449" y="0" type="line"/>
    </contour>
    <contour>
      <point x="583" y="687" type="line"/>
      <point x="823" y="687" type="line"/>
      <point x="190" y="0" type="line"/>
      <point x="-50" y="0" type="line"/>
    </contour>
  </outline>
</glyph>
<glyph name="backslash" format="1">
  <advance width="489"/>
  <unicode hex="005C"/>
  <outline>
    <contour>
      <point x="449" y="-74" type="line"/>
      <point x="279" y="743" type="line"/>
      <point x="83" y="743" type="line"/>
      <point x="253" y="-74" type="line"/>
    </contour>
  </outline>
</glyph>
<glyph name="underscore" format="1">
  <advance width="592"/>
  <unicode hex="005F"/>
  <outline>
    <contour>
      <point x="507" y="-159" type="line"/>
      <point x="528" y="-61" type="line"/>
      <point x="-68" y="-61" type="line"/>
      <point x="-89" y="-159" type="line"/>
    </contour>
  </outline>
</glyph>
<glyph name="a" format="1">
  <advance width="676"/>
  <unicode hex="0061"/>
  <outline>
    <contour>
      <point x="571" y="0" type="line"/>
      <point x="679" y="517" type="line"/>
      <point x="486" y="517" type="line"/>
      <point x="378" y="0" type="line"/>
    </contour>
    <component base="lowercase_loop_reverse" xOffset="-99"/>
    <contour>
      <point x="383" y="517" type="move" name="top"/>
    </contour>
    <contour>
      <point x="571" y="0" type="move" name="bottom"/>
    </contour>
  </outline>
</glyph>
<glyph name="g" format="1">
  <advance width="657"/>
  <unicode hex="0067"/>
  <outline>
    <contour>
      <point x="374" y="73" type="line" smooth="yes"/>
      <point x="364" y="28"/>
      <point x="295" y="-12"/>
      <point x="210" y="-12" type="curve" smooth="yes"/>
      <point x="163" y="-12"/>
      <point x="106" y="0"/>
      <point x="81" y="25" type="curve"/>
      <point x="0" y="-99" type="line"/>
      <point x="49" y="-139"/>
      <point x="133" y="-172"/>
      <point x="235" y="-172" type="curve" smooth="yes"/>
      <point x="399" y="-172"/>
      <point x="534" y="-88"/>
      <point x="562" y="47" type="curve" smooth="yes"/>
      <point x="660" y="517" type="line"/>
      <point x="466" y="517" type="line"/>
    </contour>
    <contour>
      <point x="255" y="198"/>
      <point x="227" y="216"/>
      <point x="227" y="256" type="curve" smooth="yes"/>
      <point x="227" y="316"/>
      <point x="290" y="369"/>
      <point x="356" y="369" type="curve" smooth="yes"/>
      <point x="397" y="369"/>
      <point x="422" y="349"/>
      <point x="422" y="312" type="curve" smooth="yes"/>
      <point x="422" y="252"/>
      <point x="358" y="198"/>
      <point x="293" y="198" type="curve" smooth="yes"/>
    </contour>
    <contour>
      <point x="459" y="432" type="line"/>
      <point x="445" y="483"/>
      <point x="375" y="529"/>
      <point x="293" y="529" type="curve" smooth="yes"/>
      <point x="146" y="529"/>
      <point x="30" y="385"/>
      <point x="30" y="238" type="curve" smooth="yes"/>
      <point x="30" y="120"/>
      <point x="105" y="38"/>
      <point x="218" y="38" type="curve" smooth="yes"/>
      <point x="283" y="38"/>
      <point x="355" y="66"/>
      <point x="407" y="123" type="curve"/>
    </contour>
    <contour>
      <point x="392" y="517" type="move" name="top"/>
    </contour>
    <contour>
      <point x="235" y="-172" type="move" name="bottom"/>
    </contour>
  </outline>
</glyph>
<glyph name="j" format="1">
  <advance width="304"/>
  <unicode hex="006A"/>
  <outline>
    <contour>
      <point x="286" y="572"/>
      <point x="336" y="622"/>
      <point x="336" y="678" type="curve" smooth="yes"/>
      <point x="336" y="728"/>
      <point x="300" y="770"/>
      <point x="247" y="770" type="curve" smooth="yes"/>
      <point x="189" y="770"/>
      <point x="140" y="719"/>
      <point x="140" y="665" type="curve" smooth="yes"/>
      <point x="140" y="614"/>
      <point x="177" y="572"/>
      <point x="231" y="572" type="curve" smooth="yes"/>
    </contour>
    <component base="jdotless"/>
  </outline>
</glyph>
<glyph name="o" format="1">
  <advance width="636"/>
  <unicode hex="006F"/>
  <outline>
    <contour>
      <point x="441" y="-12"/>
      <point x="612" y="127"/>
      <point x="612" y="296" type="curve" smooth="yes"/>
      <point x="612" y="426"/>
      <point x="508" y="529"/>
      <point x="363" y="529" type="curve" smooth="yes"/>
      <point x="197" y="529"/>
      <point x="25" y="392"/>
      <point x="25" y="222" type="curve" smooth="yes"/>
      <point x="25" y="91"/>
      <point x="129" y="-12"/>
      <point x="275" y="-12" type="curve" smooth="yes"/>
    </contour>
    <contour>
      <point x="236" y="148"/>
      <point x="202" y="181"/>
      <point x="202" y="225" type="curve" smooth="yes"/>
      <point x="202" y="294"/>
      <point x="278" y="369"/>
      <point x="355" y="369" type="curve" smooth="yes"/>
      <point x="402" y="369"/>
      <point x="435" y="337"/>
      <point x="435" y="293" type="curve" smooth="yes"/>
      <point x="435" y="225"/>
      <point x="359" y="148"/>
      <point x="284" y="148" type="curve" smooth="yes"/>
    </contour>
    <contour>
      <point x="364" y="517" type="move" name="top"/>
    </contour>
  </outline>
</glyph>
<glyph name="r" format="1">
  <advance width="463"/>
  <unicode hex="0072"/>
  <outline>
    <contour>
      <point x="254" y="305"/>
      <point x="333" y="369"/>
      <point x="435" y="369" type="curve"/>
      <point x="456" y="529" type="line"/>
      <point x="342" y="529"/>
      <point x="247" y="433"/>
      <point x="217" y="287" type="curve"/>
      <point x="234" y="211" type="line"/>
    </contour>
    <component base="idotless" xOffset="-4"/>
    <contour>
      <point x="282" y="517" type="move" name="top"/>
    </contour>
  </outline>
</glyph>
<glyph name="s" format="1">
  <advance width="504"/>
  <unicode hex="0073"/>
  <outline>
    <contour>
      <point x="350" y="-12"/>
      <point x="460" y="61"/>
      <point x="460" y="181" type="curve" smooth="yes"/>
      <point x="460" y="288"/>
      <point x="371" y="309"/>
      <point x="281" y="330" type="curve" smooth="yes"/>
      <point x="229" y="342"/>
      <point x="222" y="347"/>
      <point x="222" y="356" type="curve" smooth="yes"/>
      <point x="222" y="375"/>
      <point x="253" y="398"/>
      <point x="292" y="398" type="curve" smooth="yes"/>
      <point x="330" y="398"/>
      <point x="385" y="375"/>
      <point x="422" y="347" type="curve"/>
      <point x="502" y="457" type="line"/>
      <point x="448" y="496"/>
      <point x="377" y="529"/>
      <point x="292" y="529" type="curve" smooth="yes"/>
      <point x="159" y="529"/>
      <point x="50" y="449"/>
      <point x="50" y="332" type="curve" smooth="yes"/>
      <point x="50" y="230"/>
      <point x="132" y="211"/>
      <point x="228" y="189" type="curve" smooth="yes"/>
      <point x="285" y="176"/>
      <point x="288" y="169"/>
      <point x="288" y="162" type="curve" smooth="yes"/>
      <point x="288" y="140"/>
      <point x="262" y="122"/>
      <point x="218" y="122" type="curve" smooth="yes"/>
      <point x="170" y="122"/>
      <point x="101" y="144"/>
      <point x="59" y="179" type="curve"/>
      <point x="-28" y="71" type="line"/>
      <point x="27" y="22"/>
      <point x="114" y="-12"/>
      <point x="210" y="-12" type="curve" smooth="yes"/>
    </contour>
    <contour>
      <point x="304" y="517" type="move" name="top"/>
    </contour>
    <contour>
      <point x="196" y="0" type="move" name="bottom"/>
    </contour>
  </outline>
</glyph>
<glyph name="v" format="1">
  <advance width="635"/>
  <unicode hex="0076"/>
  <outline>
    <contour>
      <point x="355" y="0" type="line"/>
      <point x="685" y="517" type="line"/>
      <point x="483" y="517" type="line"/>
      <point x="306" y="221" type="line"/>
      <point x="252" y="517" type="line"/>
      <point x="58" y="517" type="line"/>
      <point x="177" y="0" type="line"/>
    </contour>
  </outline>
</glyph>
<glyph name="x" format="1">
  <advance width="576"/>
  <unicode hex="0078"/>
  <outline>
    <contour>
      <point x="519" y="0" type="line"/>
      <point x="270" y="517" type="line"/>
      <point x="70" y="517" type="line"/>
      <point x="320" y="0" type="line"/>
    </contour>
    <contour>
      <point x="153" y="0" type="line"/>
      <point x="621" y="517" type="line"/>
      <point x="418" y="517" type="line"/>
      <point x="-51" y="0" type="line"/>
    </contour>
  </outline>
</glyph>
<glyph name="bar" format="1">
  <advance width="313"/>
  <unicode hex="007C"/>
  <outline>
    <contour>
      <point x="152" y="-74" type="line"/>
      <point x="322" y="743" type="line"/>
      <point x="193" y="743" type="line"/>
      <point x="23" y="-74" type="line"/>
    </contour>
  </outline>
</glyph>
<glyph name="cent" format="1">
  <advance width="556"/>
  <unicode hex="00A2"/>
  <outline>
    <contour>
      <point x="294" y="-74" type="line"/>
      <point x="432" y="589" type="line"/>
      <point x="322" y="589" type="line"/>
      <point x="184" y="-74" type="line"/>
    </contour>
    <component base="c"/>
  </outline>
</glyph>
<glyph name="paragraph" format="1">
  <advance width="757"/>
  <unicode hex="00B6"/>
  <outline>
    <contour>
      <point x="343" y="-50" type="line"/>
      <point x="469" y="556" type="line"/>
      <point x="592" y="556" type="line"/>
      <point x="466" y="-50" type="line"/>
      <point x="603" y="-50" type="line"/>
      <point x="756" y="684" type="line"/>
      <point x="340" y="684" type="line"/>
      <point x="188" y="684"/>
      <point x="69" y="588"/>
      <point x="69" y="444" type="curve" smooth="yes"/>
      <point x="69" y="340"/>
      <point x="147" y="272"/>
      <point x="279" y="272" type="curve"/>
      <point x="206" y="-50" type="line"/>
    </contour>
  </outline>
</glyph>
<glyph name="cedilla" format="1">
  <advance width="337"/>
  <unicode hex="00B8"/>
  <outline>
    <contour>
      <point x="144" y="-200"/>
      <point x="196" y="-169"/>
      <point x="196" y="-109" type="curve" smooth="yes"/>
      <point x="196" y="-70"/>
      <point x="166" y="-42"/>
      <point x="121" y="-42" type="curve" smooth="yes"/>
      <point x="107" y="-42"/>
      <point x="67" y="-46"/>
      <point x="43" y="-58" type="curve"/>
      <point x="129" y="-62" type="line"/>
      <point x="175" y="11" type="line"/>
      <point x="82" y="11" type="line"/>
      <point x="38" y="-62" type="line"/>
      <point x="64" y="-91" type="line"/>
      <point x="75" y="-83"/>
      <point x="89" y="-78"/>
      <point x="100" y="-78" type="curve" smooth="yes"/>
      <point x="109" y="-78"/>
      <point x="114" y="-84"/>
      <point x="114" y="-93" type="curve" smooth="yes"/>
      <point x="114" y="-112"/>
      <point x="90" y="-125"/>
      <point x="57" y="-125" type="curve" smooth="yes"/>
      <point x="43" y="-125"/>
      <point x="25" y="-121"/>
      <point x="10" y="-107" type="curve"/>
      <point x="-25" y="-166" type="line"/>
      <point x="-3" y="-183"/>
      <point x="32" y="-200"/>
      <point x="76" y="-200" type="curve" smooth="yes"/>
    </contour>
    <contour>
      <point x="113" y="0" type="move" name="_bottom"/>
    </contour>
  </outline>
</glyph>
<glyph name="multiply" format="1">
  <advance width="574"/>
  <unicode hex="00D7"/>
  <outline>
    <contour>
      <point x="558" y="457" type="line"/>
      <point x="469" y="563" type="line"/>
      <point x="47" y="210" type="line"/>
      <point x="136" y="104" type="line"/>
    </contour>
    <contour>
      <point x="511" y="214" type="line"/>
      <point x="227" y="567" type="line"/>
      <point x="95" y="454" type="line"/>
      <point x="379" y="101" type="line"/>
    </contour>
  </outline>
</glyph>
<glyph name="Thorn" format="1">
  <advance width="671"/>
  <unicode hex="00DE"/>
  <outline>
    <contour>
      <point x="200" y="0" type="line"/>
      <point x="222" y="105" type="line"/>
      <point x="364" y="105" type="line" smooth="yes"/>
      <point x="536" y="105"/>
      <point x="673" y="222"/>
      <point x="673" y="385" type="curve" smooth="yes"/>
      <point x="673" y="504"/>
      <point x="585" y="585"/>
      <point x="451" y="585" type="curve" smooth="yes"/>
      <point x="317" y="585" type="line"/>
      <point x="338" y="687" type="line"/>
      <point x="149" y="687" type="line"/>
      <point x="6" y="0" type="line"/>
    </contour>
    <contour>
      <point x="286" y="409" type="line"/>
      <point x="411" y="409" type="line" smooth="yes"/>
      <point x="452" y="409"/>
      <point x="474" y="394"/>
      <point x="474" y="369" type="curve" smooth="yes"/>
      <point x="474" y="327"/>
      <point x="424" y="281"/>
      <point x="372" y="281" type="curve" smooth="yes"/>
      <point x="259" y="281" type="line"/>
    </contour>
  </outline>
</glyph>
<glyph name="dcroat" format="1">
  <advance width="706"/>
  <unicode hex="0111"/>
  <outline>
    <contour>
      <point x="744" y="565" type="line"/>
      <point x="763" y="655" type="line"/>
      <point x="373" y="655" type="line"/>
      <point x="354" y="565" type="line"/>
    </contour>
    <component base="d"/>
  </outline>
</glyph>
<glyph name="lslash" format="1">
  <advance width="386"/>
  <unicode hex="0142"/>
  <outline>
    <contour>
      <point x="387" y="350" type="line"/>
      <point x="420" y="517" type="line"/>
      <point x="36" y="345" type="line"/>
      <point x="4" y="178" type="line"/>
    </contour>
    <component base="l" xOffset="47"/>
  </outline>
</glyph>
<glyph name="circumflex" format="1">
  <advance width="498"/>
  <unicode hex="02C6"/>
  <outline>
    <contour>
      <point x="246" y="574" type="line"/>
      <point x="335" y="641" type="line"/>
      <point x="393" y="574" type="line"/>
      <point x="501" y="574" type="line"/>
      <point x="424" y="728" type="line"/>
      <point x="269" y="728" type="line"/>
      <point x="129" y="574" type="line"/>
    </contour>
    <contour>
      <point x="344" y="704" type="move" name="top"/>
    </contour>
    <contour>
      <point x="305" y="517" type="move" name="_top"/>
    </contour>
  </outline>
</glyph>
<glyph name="caron" format="1">
  <advance width="498"/>
  <unicode hex="02C7"/>
  <outline>
    <contour>
      <point x="392" y="574" type="line"/>
      <point x="533" y="728" type="line"/>
      <point x="416" y="728" type="line"/>
      <point x="326" y="661" type="line"/>
      <point x="269" y="728" type="line"/>
      <point x="161" y="728" type="line"/>
      <point x="237" y="574" type="line"/>
    </contour>
    <contour>
      <point x="339" y="704" type="move" name="top"/>
    </contour>
    <contour>
      <point x="300" y="517" type="move" name="_top"/>
    </contour>
  </outline>
</glyph>
<glyph name="breve" format="1">
  <advance width="468"/>
  <unicode hex="02D8"/>
  <outline>
    <contour>
      <point x="362" y="575"/>
      <point x="429" y="599"/>
      <point x="486" y="646" type="curve"/>
      <point x="427" y="720" type="line"/>
      <point x="395" y="693"/>
      <point x="355" y="677"/>
      <point x="321" y="677" type="curve" smooth="yes"/>
      <point x="287" y="677"/>
      <point x="255" y="693"/>
      <point x="233" y="720" type="curve"/>
      <point x="144" y="646" type="line"/>
      <point x="182" y="599"/>
      <point x="238" y="575"/>
      <point x="300" y="575" type="curve" smooth="yes"/>
    </contour>
    <contour>
      <point x="326" y="704" type="move" name="top"/>
    </contour>
    <contour>
      <point x="287" y="517" type="move" name="_top"/>
    </contour>
  </outline>
</glyph>
<glyph name="ring" format="1">
  <advance width="368"/>
  <unicode hex="02DA"/>
  <outline>
    <contour>
      <point x="325" y="575"/>
      <point x="399" y="643"/>
      <point x="399" y="721" type="curve" smooth="yes"/>
      <point x="399" y="776"/>
      <point x="358" y="817"/>
      <point x="300" y="817" type="curve" smooth="yes"/>
      <point x="226" y="817"/>
      <point x="151" y="750"/>
      <point x="151" y="671" type="curve" smooth="yes"/>
      <point x="151" y="616"/>
      <point x="192" y="575"/>
      <point x="250" y="575" type="curve" smooth="yes"/>
    </contour>
    <contour>
      <point x="241" y="647"/>
      <point x="225" y="664"/>
      <point x="225" y="687" type="curve" smooth="yes"/>
      <point x="225" y="718"/>
      <point x="255" y="745"/>
      <point x="285" y="745" type="curve" smooth="yes"/>
      <point x="308" y="745"/>
      <point x="325" y="728"/>
      <point x="325" y="706" type="curve" smooth="yes"/>
      <point x="325" y="675"/>
      <point x="295" y="647"/>
      <point x="265" y="647" type="curve" smooth="yes"/>
    </contour>
    <contour>
      <point x="277" y="704" type="move" name="top"/>
    </contour>
    <contour>
      <point x="238" y="517" type="move" name="_top"/>
    </contour>
  </outline>
</glyph>
<glyph name="tilde" format="1">
  <advance width="440"/>
  <unicode hex="02DC"/>
  <outline>
    <contour>
      <point x="433" y="571"/>
      <point x="474" y="609"/>
      <point x="504" y="704" type="curve"/>
      <point x="417" y="732" type="line"/>
      <point x="406" y="704"/>
      <point x="385" y="683"/>
      <point x="359" y="683" type="curve" smooth="yes"/>
      <point x="339" y="683"/>
      <point x="295" y="724"/>
      <point x="235" y="724" type="curve" smooth="yes"/>
      <point x="168" y="724"/>
      <point x="128" y="685"/>
      <point x="98" y="590" type="curve"/>
      <point x="184" y="563" type="line"/>
      <point x="196" y="592"/>
      <point x="216" y="612"/>
      <point x="242" y="612" type="curve" smooth="yes"/>
      <point x="263" y="612"/>
      <point x="305" y="571"/>
      <point x="367" y="571" type="curve" smooth="yes"/>
    </contour>
    <contour>
      <point x="313" y="704" type="move" name="top"/>
    </contour>
    <contour>
      <point x="274" y="517" type="move" name="_top"/>
    </contour>
  </outline>
</glyph>
<glyph name="hungarumlaut" format="1">
  <advance width="667"/>
  <unicode hex="02DD"/>
  <outline>
    <contour>
      <point x="260" y="574" type="line"/>
      <point x="440" y="710" type="line"/>
      <point x="275" y="738" type="line"/>
      <point x="129" y="574" type="line"/>
    </contour>
    <contour>
      <point x="518" y="574" type="line"/>
      <point x="698" y="710" type="line"/>
      <point x="533" y="738" type="line"/>
      <point x="387" y="574" type="line"/>
    </contour>
    <contour>
      <point x="427" y="704" type="move" name="top"/>
    </contour>
    <contour>
      <point x="388" y="517" type="move" name="_top"/>
    </contour>
  </outline>
</glyph>
<glyph name="endash" format="1">
  <advance width="568"/>
  <unicode hex="2013"/>
  <outline>
    <contour>
      <point x="517" y="200" type="line"/>
      <point x="550" y="356" type="line"/>
      <point x="59" y="356" type="line"/>
      <point x="26" y="200" type="line"/>
    </contour>
  </outline>
</glyph>
<glyph name="perthousand" format="1">
  <advance width="1259"/>
  <unicode hex="2030"/>
  <outline>
    <contour>
      <point x="206" y="0" type="line"/>
      <point x="832" y="687" type="line"/>
      <point x="695" y="687" type="line"/>
      <point x="69" y="0" type="line"/>
    </contour>
    <contour>
      <point x="726" y="-11"/>
      <point x="816" y="84"/>
      <point x="816" y="195" type="curve" smooth="yes"/>
      <point x="816" y="281"/>
      <point x="759" y="346"/>
      <point x="660" y="346" type="curve" smooth="yes"/>
      <point x="544" y="346"/>
      <point x="453" y="251"/>
      <point x="453" y="139" type="curve" smooth="yes"/>
      <point x="453" y="54"/>
      <point x="511" y="-11"/>
      <point x="611" y="-11" type="curve" smooth="yes"/>
    </contour>
    <contour>
      <point x="586" y="97"/>
      <point x="572" y="109"/>
      <point x="572" y="134" type="curve" smooth="yes"/>
      <point x="572" y="182"/>
      <point x="609" y="238"/>
      <point x="662" y="238" type="curve" smooth="yes"/>
      <point x="683" y="238"/>
      <point x="698" y="226"/>
      <point x="698" y="200" type="curve" smooth="yes"/>
      <point x="698" y="154"/>
      <point x="660" y="97"/>
      <point x="608" y="97" type="curve" smooth="yes"/>
    </contour>
    <contour>
      <point x="356" y="338"/>
      <point x="446" y="431"/>
      <point x="446" y="544" type="curve" smooth="yes"/>
      <point x="446" y="629"/>
      <point x="389" y="694"/>
      <point x="288" y="694" type="curve" smooth="yes"/>
      <point x="172" y="694"/>
      <point x="83" y="600"/>
      <point x="83" y="487" type="curve" smooth="yes"/>
      <point x="83" y="401"/>
      <point x="142" y="338"/>
      <point x="239" y="338" type="curve" smooth="yes"/>
    </contour>
    <contour>
      <point x="216" y="445"/>
      <point x="202" y="457"/>
      <point x="202" y="482" type="curve" smooth="yes"/>
      <point x="202" y="529"/>
      <point x="239" y="586"/>
      <point x="291" y="586" type="curve" smooth="yes"/>
      <point x="313" y="586"/>
      <point x="327" y="574"/>
      <point x="327" y="549" type="curve" smooth="yes"/>
      <point x="327" y="502"/>
      <point x="289" y="445"/>
      <point x="237" y="445" type="curve" smooth="yes"/>
    </contour>
    <contour>
      <point x="1120" y="-11"/>
      <point x="1210" y="84"/>
      <point x="1210" y="195" type="curve" smooth="yes"/>
      <point x="1210" y="281"/>
      <point x="1153" y="346"/>
      <point x="1054" y="346" type="curve" smooth="yes"/>
      <point x="938" y="346"/>
      <point x="847" y="251"/>
      <point x="847" y="139" type="curve" smooth="yes"/>
      <point x="847" y="54"/>
      <point x="905" y="-11"/>
      <point x="1005" y="-11" type="curve" smooth="yes"/>
    </contour>
    <contour>
      <point x="980" y="97"/>
      <point x="966" y="109"/>
      <point x="966" y="134" type="curve" smooth="yes"/>
      <point x="966" y="182"/>
      <point x="1003" y="238"/>
      <point x="1056" y="238" type="curve" smooth="yes"/>
      <point x="1077" y="238"/>
      <point x="1092" y="226"/>
      <point x="1092" y="200" type="curve" smooth="yes"/>
      <point x="1092" y="154"/>
      <point x="1054" y="97"/>
      <point x="1002" y="97" type="curve" smooth="yes"/>
    </contour>
  </outline>
</glyph>
<glyph name="guilsinglleft" format="1">
  <advance width="370"/>
  <unicode hex="2039"/>
  <outline>
    <contour>
      <point x="299" y="79" type="line"/>
      <point x="199" y="256" type="line"/>
      <point x="376" y="432" type="line"/>
      <point x="236" y="462" type="line"/>
      <point x="29" y="256" type="line"/>
      <point x="155" y="48" type="line"/>
    </contour>
  </outline>
</glyph>
<glyph name="euro" format="1">
  <advance width="711"/>
  <unicode hex="20AC"/>
  <outline>
    <contour>
      <point x="453" y="247" type="line"/>
      <point x="469" y="324" type="line"/>
      <point x="3" y="324" type="line"/>
      <point x="-13" y="247" type="line"/>
    </contour>
    <contour>
      <point x="479" y="372" type="line"/>
      <point x="495" y="449" type="line"/>
      <point x="29" y="449" type="line"/>
      <point x="13" y="372" type="line"/>
    </contour>
    <component base="C"/>
  </outline>
</glyph>
<glyph name="ascender" format="1">
  <advance width="676"/>
  <outline>
    <contour>
      <point x="191" y="0" type="line"/>
      <point x="336" y="699" type="line"/>
      <point x="143" y="699" type="line"/>
      <point x="-2" y="0" type="line"/>
    </contour>
  </outline>
</glyph>
<glyph name="descender" format="1">
  <advance width="676"/>
  <outline>
    <contour>
      <point x="155" y="-172" type="line"/>
      <point x="298" y="517" type="line"/>
      <point x="105" y="517" type="line"/>
      <point x="-38" y="-172" type="line"/>
    </contour>
  </outline>
</glyph>
<glyph name="lowercase_nh_shoulder" format="1">
  <advance width="601"/>
  <outline>
    <contour>
      <point x="495" y="0" type="line"/>
      <point x="559" y="305"/>
      <point x="567" y="331"/>
      <point x="567" y="369" type="curve" smooth="yes"/>
      <point x="567" y="462"/>
      <point x="504" y="529"/>
      <point x="403" y="529" type="curve" smooth="yes"/>
      <point x="310" y="529"/>
      <point x="231" y="475"/>
      <point x="208" y="387" type="curve"/>
      <point x="220" y="282" type="line"/>
      <point x="228" y="328"/>
      <point x="273" y="369"/>
      <point x="323" y="369" type="curve" smooth="yes"/>
      <point x="355" y="369"/>
      <point x="375" y="351"/>
      <point x="375" y="317" type="curve" smooth="yes"/>
      <point x="375" y="302"/>
      <point x="372" y="289"/>
      <point x="311" y="0" type="curve"/>
    </contour>
  </outline>
</glyph>
